<svg width="10" height="9" viewBox="0 0 10 9" fill="none" xmlns="http://www.w3.org/2000/svg">
<g clip-path="url(#clip0_23_72)">
<path d="M4.9967 1.25775C5.1272 1.13753 5.24909 1.01936 5.37685 0.909398C5.67691 0.650907 5.99025 0.412111 6.34579 0.242656C6.69391 0.076893 7.05687 -0.0125531 7.44327 0.00221785C7.71442 0.0124754 7.98322 0.0411966 8.24343 0.117513C8.68336 0.246348 9.0725 0.466681 9.38311 0.832261C9.72106 1.22984 9.89727 1.69595 9.96369 2.21621C9.99729 2.47799 10.0137 2.73976 9.98596 3.00318C9.96134 3.23828 9.91055 3.46723 9.83046 3.68838C9.68785 4.08145 9.48742 4.44006 9.2405 4.76912C9.05101 5.02146 8.84237 5.25697 8.62163 5.48018C7.98635 6.12312 7.35068 6.76566 6.7154 7.40819C6.2278 7.90137 5.73903 8.39415 5.25222 8.88856C5.13853 9.00427 5.00803 9.02684 4.86621 8.97104C4.81698 8.95175 4.77244 8.91031 4.73337 8.87092C4.41338 8.54965 4.09496 8.22633 3.77654 7.90343C2.95646 7.07256 2.14107 6.23636 1.31473 5.41248C0.975994 5.0748 0.686875 4.69937 0.446984 4.28332C0.198498 3.85127 0.0379202 3.3823 0.00588268 2.87434C-0.0132617 2.56948 0.0152595 2.26668 0.0777717 1.96839C0.130516 1.71729 0.206312 1.47398 0.329774 1.24995C0.451282 1.02962 0.599358 0.832672 0.779081 0.660344C1.03968 0.41088 1.34638 0.2484 1.67769 0.14008C1.84726 0.0846888 2.02659 0.0596603 2.2028 0.0301185C2.41885 -0.00598821 2.63726 -0.00639851 2.85488 0.00960331C3.04398 0.0235536 3.22643 0.0740209 3.40577 0.137618C3.66324 0.229526 3.90039 0.362464 4.12583 0.521251C4.41573 0.725582 4.69195 0.947146 4.94122 1.20441C4.95763 1.22205 4.97521 1.23723 4.9967 1.25775Z" fill="#FF3578"/>
</g>
<defs>
<clipPath id="clip0_23_72">
<rect width="10" height="9" fill="white"/>
</clipPath>
</defs>
</svg>
