<svg width="32" height="32" viewBox="0 0 32 32" fill="none" xmlns="http://www.w3.org/2000/svg">
<path d="M6.66663 17.0129C6.66663 15.2025 6.66663 14.2973 7.03257 13.5017C7.39852 12.706 8.08578 12.117 9.46029 10.9388L10.7936 9.79594C13.2781 7.66644 14.5203 6.60168 16 6.60168C17.4797 6.60168 18.7219 7.66644 21.2063 9.79594L22.5396 10.9388C23.9141 12.117 24.6014 12.706 24.9673 13.5017C25.3333 14.2973 25.3333 15.2025 25.3333 17.0129V22.6667C25.3333 25.1809 25.3333 26.4379 24.5522 27.219C23.7712 28 22.5141 28 20 28H12C9.4858 28 8.22872 28 7.44767 27.219C6.66663 26.4379 6.66663 25.1809 6.66663 22.6667V17.0129Z" stroke="white" stroke-width="2"/>
<path d="M19.3333 28V21C19.3333 20.4477 18.8856 20 18.3333 20H13.6666C13.1143 20 12.6666 20.4477 12.6666 21V28" stroke="white" stroke-width="2" stroke-linecap="round" stroke-linejoin="round"/>
</svg>
