<svg width="16" height="16" viewBox="0 0 16 16" fill="none" xmlns="http://www.w3.org/2000/svg">
<path fill-rule="evenodd" clip-rule="evenodd" d="M8.39788 13.1326C9.52638 12.5237 12.6667 10.5414 12.6667 7.33335C12.6667 4.75602 10.5774 2.66669 8.00004 2.66669C5.42271 2.66669 3.33337 4.75602 3.33337 7.33335C3.33337 10.5414 6.4737 12.5237 7.6022 13.1326C7.8529 13.2678 8.14718 13.2678 8.39788 13.1326ZM8.00004 9.33335C9.10461 9.33335 10 8.43792 10 7.33335C10 6.22878 9.10461 5.33335 8.00004 5.33335C6.89547 5.33335 6.00004 6.22878 6.00004 7.33335C6.00004 8.43792 6.89547 9.33335 8.00004 9.33335Z" fill="#FF0F66"/>
</svg>
