<svg width="32" height="32" viewBox="0 0 32 32" fill="none" xmlns="http://www.w3.org/2000/svg">
<path d="M5.33331 16C5.33331 15.381 5.33331 15.0715 5.34702 14.81C5.61488 9.69884 9.69878 5.61494 14.81 5.34708C15.0715 5.33337 15.381 5.33337 16 5.33337V5.33337C16.619 5.33337 16.9285 5.33337 17.19 5.34708C22.3012 5.61494 26.3851 9.69884 26.6529 14.81C26.6666 15.0715 26.6666 15.381 26.6666 16V23.1111C26.6666 24.5686 26.6666 25.2973 26.305 25.8139C26.1711 26.005 26.0049 26.1712 25.8138 26.305C25.2972 26.6667 24.5685 26.6667 23.1111 26.6667H16C15.381 26.6667 15.0715 26.6667 14.81 26.653C9.69878 26.3851 5.61488 22.3012 5.34702 17.1901C5.33331 16.9286 5.33331 16.6191 5.33331 16V16Z" stroke="#9F9FA7" stroke-width="2"/>
<path d="M12 14.6666L20 14.6666" stroke="#9F9FA7" stroke-width="2" stroke-linecap="round" stroke-linejoin="round"/>
<path d="M16 20H20" stroke="#9F9FA7" stroke-width="2" stroke-linecap="round" stroke-linejoin="round"/>
</svg>
