<svg width="18" height="20" viewBox="0 0 18 20" fill="none" xmlns="http://www.w3.org/2000/svg">
<path d="M13.0219 16.4305C12.5407 18.5533 10.7308 19.6884 9.05849 19.7138C7.4215 19.7385 5.4963 18.6613 4.98292 16.4305C4.9199 16.4305 4.8515 16.4305 4.78309 16.4305C4.08603 16.4305 3.38896 16.4321 2.6919 16.4298C2.42291 16.429 2.15622 16.4059 1.89569 16.3303C1.0672 16.0905 0.482339 15.5754 0.175691 14.765C-0.0925294 14.0571 -0.0502596 13.3562 0.29251 12.68C0.427004 12.4155 0.612223 12.1857 0.815118 11.9706C1.11024 11.6583 1.32312 11.2967 1.46761 10.8934C1.56752 10.6143 1.62977 10.3251 1.63208 10.0282C1.63822 9.20703 1.63592 8.38506 1.63592 7.56385C1.63669 6.79046 1.72276 6.02631 1.94487 5.28453C2.10319 4.75557 2.31915 4.24897 2.59045 3.76627C2.90939 3.19875 3.29213 2.67827 3.7471 2.21485C3.94001 2.01899 4.14597 1.83471 4.35809 1.65967C5.09897 1.05051 5.9336 0.611768 6.84355 0.322612C7.22091 0.203094 7.60979 0.124443 8.00328 0.0704676C8.57661 -0.00818289 9.14995 -0.0251467 9.72404 0.0349978C10.5041 0.116733 11.2557 0.308732 11.9743 0.631816C12.5615 0.895527 13.1056 1.22632 13.6083 1.62806C14.0602 1.98969 14.4636 2.39914 14.8172 2.85793C15.359 3.56039 15.7571 4.33841 16.0292 5.18121C16.1552 5.57138 16.252 5.97234 16.2882 6.38178C16.3266 6.8159 16.3589 7.25079 16.3665 7.68646C16.3788 8.40511 16.3719 9.12376 16.3696 9.84241C16.3673 10.6551 16.6355 11.3607 17.1835 11.9606C17.4264 12.2266 17.6392 12.5096 17.7907 12.8419C17.9951 13.2907 18.0335 13.7572 17.9713 14.2345C17.8952 14.8213 17.627 15.3217 17.1996 15.7235C16.7777 16.1198 16.2743 16.3588 15.691 16.4036C15.4743 16.4197 15.2568 16.4275 15.04 16.429C14.439 16.4321 13.838 16.4298 13.2363 16.4298C13.1686 16.4305 13.0987 16.4305 13.0219 16.4305ZM9.0093 14.7804C11.0997 14.7804 13.1909 14.7804 15.2814 14.7804C15.3582 14.7804 15.4351 14.7835 15.5112 14.7773C15.7202 14.7588 15.9093 14.6917 16.0653 14.5445C16.5279 14.1088 16.4004 13.5097 16.0991 13.2043C15.7971 12.8982 15.535 12.5589 15.329 12.178C15.1523 11.8503 15.0016 11.5126 14.9079 11.1494C14.7718 10.6243 14.7249 10.0899 14.7272 9.54939C14.7296 8.86313 14.7257 8.1761 14.7288 7.48983C14.7319 6.88299 14.6612 6.28617 14.4844 5.70554C14.1432 4.58824 13.5106 3.6614 12.613 2.92425C11.8206 2.27345 10.9137 1.86709 9.8962 1.71596C8.92323 1.571 7.97408 1.65119 7.04645 1.98738C5.8629 2.41687 4.93066 3.17099 4.23205 4.20887C3.6249 5.11104 3.30673 6.11884 3.28828 7.21147C3.27599 7.96173 3.27983 8.71277 3.28137 9.46303C3.28213 9.85474 3.26753 10.2449 3.20682 10.6328C3.14072 11.0522 3.02775 11.4578 2.84868 11.8449C2.60889 12.3631 2.27688 12.8134 1.89108 13.229C1.39844 13.7587 1.65436 14.5907 2.35681 14.7527C2.46133 14.7766 2.572 14.7797 2.6796 14.7797C4.79001 14.7812 6.89966 14.7804 9.0093 14.7804ZM11.2857 16.4444C10.9184 16.4082 6.862 16.4228 6.72674 16.4591C7.03723 17.3836 7.97715 18.0606 9.00546 18.0598C10.0399 18.0583 10.9752 17.3751 11.2857 16.4444Z" fill="#252527"/>
</svg>
